<svg width="32" height="32" viewBox="0 0 32 32" fill="none" xmlns="http://www.w3.org/2000/svg">
<rect width="32" height="32" fill="#E4007F"/>
<path d="M25.843 14.5242L25.8168 14.5024C25.0341 13.7196 26.9844 8.0437 26.9844 8.0437C26.9844 8.0437 20.635 15.0009 19.1045 14.5767C18.8421 14.5068 18.7634 14.1044 18.794 13.5316L18.8946 12.1279C19.0564 9.94589 18.5185 8.28421 17.0274 8.08306C12.7332 7.50147 10.4506 13.9077 10.4506 13.9077C10.4506 13.9077 10.8748 7.97811 7.80941 8.06557C5.38685 8.13553 3.5415 11.0085 3.5415 11.0085V18.2761C4.75278 17.0124 5.56613 16.9993 6.10837 17.4803L6.13461 17.5022C6.90423 18.2849 4.98892 23.9565 4.98892 23.9565C4.98892 23.9565 11.2334 16.9993 12.742 17.4234C12.9956 17.4934 13.0743 17.887 13.0481 18.4511C12.5059 21.2978 12.9213 23.6722 14.7535 23.9171C19.1132 24.4987 21.4352 18.0925 21.4352 18.0925C21.4352 18.0925 21.0067 24.0221 24.1201 23.9303C26.5821 23.8603 28.458 20.9873 28.458 20.9873V13.724C27.2249 14.9878 26.3984 15.0009 25.8518 14.5199" fill="white"/>
</svg>
