<svg width="209" height="119" viewBox="0 0 209 119" fill="none" xmlns="http://www.w3.org/2000/svg">
<path d="M163.478 66.3022L163.36 66.1351C160.046 60.3953 180.121 30.5918 180.121 30.5918C180.121 30.5918 132.619 60.9882 124.425 56.1634C123.017 55.3522 123.185 52.9036 124.249 49.6381L127.006 41.6761C131.323 29.3073 130.788 18.8639 122.476 15.3898C98.5428 5.37203 75.4144 38.8839 75.4144 38.8839C75.4144 38.8839 87.0561 5.24866 69.1927 1.00427C55.0739 -2.34517 39.9497 11.4104 39.9497 11.4104L28.6876 53.4415C37.6511 48.0099 42.3752 49.1944 44.7657 52.8165L44.8836 52.9836C48.1216 58.703 28.256 88.5354 28.256 88.5354C28.256 88.5354 75.1504 57.9765 83.2179 62.7674C84.5763 63.565 84.4217 65.963 83.3958 69.1847C75.8485 84.8079 74.5715 99.1838 84.7883 103.439C109.101 113.559 132.457 80.1079 132.457 80.1079C132.457 80.1079 120.79 113.736 138.938 118.03C153.284 121.44 168.586 107.732 168.586 107.732L179.841 65.7265C170.751 71.1242 165.951 69.9193 163.535 66.2905" fill="#421061"/>
</svg>
